<?xml version="1.0" encoding="UTF-8" standalone="no"?>
<svg
   xmlns:dc="http://purl.org/dc/elements/1.1/"
   xmlns:cc="http://creativecommons.org/ns#"
   xmlns:rdf="http://www.w3.org/1999/02/22-rdf-syntax-ns#"
   xmlns:svg="http://www.w3.org/2000/svg"
   xmlns="http://www.w3.org/2000/svg"
   id="SVGRoot"
   version="1.1"
   viewBox="0 0 16 16"
   height="16px"
   width="16px">
  <defs
     id="defs2133" />
  <metadata
     id="metadata2136">
    <rdf:RDF>
      <cc:Work
         rdf:about="">
        <dc:format>image/svg+xml</dc:format>
        <dc:type
           rdf:resource="http://purl.org/dc/dcmitype/StillImage" />
        <dc:title></dc:title>
      </cc:Work>
    </rdf:RDF>
  </metadata>
  <g
     id="layer1">
    <g
       transform="matrix(0.16103552,0,0,0.16315694,-15.034821,-66.270241)"
       id="g4958-3-2">
      <g
         id="g6246-2-4">
        <g
           id="g6283-6-7">
          <path
             style="fill:#ffdd55;stroke-width:0.20391838"
             d="m 176.49311,426.37558 c -10.31827,-4.00292 -21.19936,-6.00335 -32.08248,-6.00335 -4.41484,0 -8.82968,0.32831 -13.20371,0.98696 v 0.002 c -6.41324,0.9625 -12.7449,2.63463 -18.87878,5.01435 0,22.69612 -3.03022,55.93686 30.90588,64.70331 0.38744,0.10196 0.77897,0.1978 1.17661,0.2916 35.18203,-8.29744 32.08248,-42.03981 32.08248,-64.99491 z m -55.45969,18.61775 c 1.52736,-2.22679 3.80511,-3.89688 6.47034,-4.64118 1.00328,-0.28345 2.06161,-0.43435 3.15462,-0.43435 3.99678,0 7.52255,2.01063 9.6229,5.07553 -0.71575,1.04406 -1.59669,1.96781 -2.60608,2.72843 -1.9515,-1.47433 -4.3822,-2.34914 -7.01682,-2.34914 -1.09506,0 -2.15339,0.15091 -3.15667,0.43231 -1.41518,0.39764 -2.72026,1.05425 -3.86221,1.91683 -1.00939,-0.76062 -1.89033,-1.68437 -2.60608,-2.72843 z m 23.37721,30.85693 c -4.49028,0 -8.6645,-1.35809 -12.13111,-3.68684 -5.49559,-3.68481 -9.21914,-9.80848 -9.63107,-16.82123 1.9454,1.87808 4.1314,3.5074 6.50907,4.8349 4.51477,2.52044 9.71468,3.95806 15.25311,3.95806 8.45445,0 16.12383,-3.35038 21.76012,-8.79296 -0.66884,11.43778 -10.15513,20.50807 -21.76012,20.50807 z m 20.76704,-28.1285 c -1.9515,-1.47433 -4.3822,-2.34914 -7.01682,-2.34914 -2.6326,0 -5.0633,0.87481 -7.01683,2.34914 -1.00941,-0.76062 -1.89033,-1.68437 -2.60609,-2.72843 2.10241,-3.0649 5.62816,-5.07553 9.62292,-5.07553 3.9968,0 7.52255,2.01063 9.62495,5.07553 -0.7178,1.04406 -1.59872,1.96781 -2.60813,2.72843 z"
             id="path3772-9-0-5-9" />
          <path
             style="fill:#ffad42;stroke-width:0.20391838"
             d="m 143.23402,491.07889 c -33.9361,-8.76646 -30.90588,-42.00719 -30.90588,-64.70331 6.13388,-2.37973 12.46554,-4.05185 18.87878,-5.01435 -2.33895,5.92587 -3.46051,12.42067 -3.70316,18.99092 -2.66523,0.7443 -4.94298,2.41439 -6.47034,4.64118 0.71575,1.04406 1.59669,1.96781 2.60608,2.72843 1.14195,-0.86258 2.44703,-1.51919 3.86221,-1.91683 0.16109,4.892 0.76061,9.75137 1.65581,14.37216 -2.37767,-1.3275 -4.56367,-2.95682 -6.50907,-4.8349 0.41193,7.01275 4.13548,13.13642 9.63107,16.82123 3.31368,10.02463 7.68976,17.39219 10.9545,18.91547 z"
             id="path3774-6-2-2-3" />
        </g>
      </g>
    </g>
  </g>
</svg>
