<?xml version="1.0" encoding="UTF-8" standalone="no"?>
<!-- Generator: Adobe Illustrator 18.1.1, SVG Export Plug-In . SVG Version: 6.00 Build 0)  -->

<svg
   xmlns:dc="http://purl.org/dc/elements/1.1/"
   xmlns:cc="http://creativecommons.org/ns#"
   xmlns:rdf="http://www.w3.org/1999/02/22-rdf-syntax-ns#"
   xmlns:svg="http://www.w3.org/2000/svg"
   xmlns="http://www.w3.org/2000/svg"
   xmlns:sodipodi="http://sodipodi.sourceforge.net/DTD/sodipodi-0.dtd"
   xmlns:inkscape="http://www.inkscape.org/namespaces/inkscape"
   version="1.1"
   id="Capa_1"
   x="0px"
   y="0px"
   viewBox="0 0 298.708 298.708"
   style="enable-background:new 0 0 298.708 298.708;"
   xml:space="preserve"
   sodipodi:docname="not-available-circle.svg"
   inkscape:version="0.92.3 (2405546, 2018-03-11)"><metadata
   id="metadata41"><rdf:RDF><cc:Work
       rdf:about=""><dc:format>image/svg+xml</dc:format><dc:type
         rdf:resource="http://purl.org/dc/dcmitype/StillImage" /></cc:Work></rdf:RDF></metadata><defs
   id="defs39">
	
</defs><sodipodi:namedview
   pagecolor="#ffffff"
   bordercolor="#666666"
   borderopacity="1"
   objecttolerance="10"
   gridtolerance="10"
   guidetolerance="10"
   inkscape:pageopacity="0"
   inkscape:pageshadow="2"
   inkscape:window-width="1920"
   inkscape:window-height="1004"
   id="namedview37"
   showgrid="false"
   inkscape:zoom="2.2346532"
   inkscape:cx="226.30084"
   inkscape:cy="166.10992"
   inkscape:window-x="0"
   inkscape:window-y="0"
   inkscape:window-maximized="1"
   inkscape:current-layer="Capa_1" />
<path
   inkscape:connector-curvature="0"
   id="path2"
   d="M 149.357,0.003 C 66.993,0.003 0,66.996 0,149.354 c 0,82.353 66.998,149.351 149.357,149.351 82.359,0 149.351,-66.998 149.351,-149.351 C 298.708,66.996 231.71,0.003 149.357,0.003 Z M 115.722,195.292 H 90.8 l -21.191,-39.7 C 63.724,144.991 57.094,135.462 52.378,119.145 h -0.582 c 0.729,16.317 -1.343,30.209 -1.343,46.401 v 29.746 H 28.697 V 97.389 h 29.719 l 20.614,36.534 c 5.891,10.454 11.634,23.296 16.192,34.174 h 0.299 C 94.194,151.78 93.965,140.08 93.965,125.069 v -27.68 h 21.756 v 97.903 z m 25.574,5.439 H 126.42 L 157.94,91.95 h 14.854 z m 100.4,-5.439 -7.653,-27.195 h -28.419 l -7.065,27.195 h -23.127 l 30.192,-97.903 h 29.436 l 30.932,97.903 z m -22.077,-81.586 h -0.305 c -1.474,5.439 -2.948,12.341 -4.569,18.074 l -5.885,19.999 h 21.936 l -6.179,-19.999 c -1.773,-5.879 -3.53,-12.635 -4.998,-18.074 z"
   style="fill:#ff5555" />
<g
   id="g6">
</g>
<g
   id="g8">
</g>
<g
   id="g10">
</g>
<g
   id="g12">
</g>
<g
   id="g14">
</g>
<g
   id="g16">
</g>
<g
   id="g18">
</g>
<g
   id="g20">
</g>
<g
   id="g22">
</g>
<g
   id="g24">
</g>
<g
   id="g26">
</g>
<g
   id="g28">
</g>
<g
   id="g30">
</g>
<g
   id="g32">
</g>
<g
   id="g34">
</g>
</svg>